# xmcd CD database file
#
# Track frame offsets:
#	150
#	18599
#	36016
#	53022
#	69519
#	89618
#	107295
#	138511
#	157338
#	173537
#	193052
#	213122
#
# Disc length: 3080 seconds
#
# Revision: 0
# Processed by: cddbd v1.5.1PL0 Copyright (c) Steve Scherf et al.
# Submitted via: CDex 1.51
#
DISCID=9f0c060c
DTITLE=U-Ka - bermagui
DYEAR=2005
DGENRE=Jazz
TTITLE0=welcome
TTITLE1=all for my love
TTITLE2=arms around me
TTITLE3=opulence
TTITLE4=shine on me
TTITLE5=love so easy
TTITLE6=riversong
TTITLE7=footsteps
TTITLE8=down the line
TTITLE9=you've still got love
TTITLE10=silent donations
TTITLE11=soul
EXTD=YEAR: 2005
EXTT0=
EXTT1=
EXTT2=
EXTT3=
EXTT4=
EXTT5=
EXTT6=
EXTT7=
EXTT8=
EXTT9=
EXTT10=
EXTT11=
PLAYORDER=
